<svg xmlns="http://www.w3.org/2000/svg" xmlns:xlink="http://www.w3.org/1999/xlink" style="vertical-align:-3.255ex" width="85.502ex" height="7.634ex" viewBox="0 -1885.7 36813.2 3287"><defs><path id="m" stroke-width="1" d="M636 367q0 33 28 59t55 27q29 0 53-22t24-74q0-36-14-101t-55-144T633 6Q604-8 567-8 466-8 415 43l-5-5-7-7q-3-3-7-6t-8-7-10-7-11-6-12-5-15-4-16-3-18-1q-57 0-97 13t-58 35-26 44-8 45q0 47 36 145t37 114q0 20-32 8-46-20-68-90-5-18-9-21t-20-3H44q-20 0-20 14 0 9 10 32t29 52 51 50 73 22q53 0 87-25t35-65q0-16-34-107t-35-138q0-74 77-74 8 0 16 2t14 5 12 7 10 9 8 9 6 8 5 7l2 5q0 4-1 15t-2 19q0 10 4 38 2 10 28 115t29 114q8 18 27 33t44 15q27 0 40-16t13-31q0-13-30-132t-31-151q0-71 68-71 29 0 54 23t40 56 26 66 15 56l4 23q0 24-45 48-37 20-37 52z"/><path id="a" stroke-width="1" d="M223 430q-31 0-31 18 0 2 33 113t36 116q4 6 9 7 3 2 264 2 262 0 263-1 8-3 8-12 0-5-1-12t-4-13-2-7q-2-4-267-289L266 67l63-1h35q48 0 82 4t77 26 73 61q21 29 34 63t19 53 14 24q4 2 21 2h4q27 0 27-18 0-3-42-136T628 8q-2-4-11-8H221q-68 0-82-1H99Q86-1 78 1t-9 4-1 7q0 4 3 19t6 18l7 8q7 8 20 22t29 31 37 41 43 45l397 428H488q-7 0-21-1t-24-3-21-4-24-7-25-9q-81-40-118-151-4-13-9-16t-23-3z"/><path id="c" stroke-width="1" d="M56 237v13l14 20h299v150l1 150q10 13 19 13 13 0 20-15V270h298q15-8 15-20t-15-20H409V-68q-8-14-18-14h-4q-12 0-18 14v298H70q-14 7-14 20z"/><path id="d" stroke-width="1" d="M213 578l-13-5q-14-5-40-10t-58-7H83v46h19q47 2 87 15t56 24 28 22q2 3 12 3 9 0 17-6V361l1-300q7-7 12-9t24-4 62-2h26V0h-11q-21 3-159 3-136 0-157-3H88v46h64q16 0 25 1t16 3 8 2 6 5 6 4v517z"/><path id="e" stroke-width="1" d="M94 250q0 69 10 131t23 107 37 88 38 67 42 52 33 34 25 21h17q14 0 14-9 0-3-17-21t-41-53-49-86-42-138-17-193 17-192 41-139 49-86 42-53 17-21q0-9-15-9h-16l-28 24q-94 85-137 212T94 250z"/><path id="f" stroke-width="1" d="M184 600q0 24 19 42t44 19q18 0 30-12t13-30q0-23-20-42t-44-20q-15 0-28 10t-14 33zM21 287q0 8 9 31t24 51 44 51 60 22q39 0 65-23t27-62q0-17-14-56t-40-105-42-113q-5-22-5-32 0-25 17-25 9 0 19 3t23 14 27 35 25 59q3 12 5 14t17 2q20 0 20-10 0-8-9-31t-25-51-45-50-62-22q-32 0-59 21T74 74q0 17 5 32t43 114q38 101 44 121t7 39q0 24-17 24h-2q-30 0-55-33t-38-84q-1-1-2-3t-1-3-2-2-3-1-4 0-8 0H27q-6 6-6 9z"/><path id="g" stroke-width="1" d="M78 35v25l16 43 43 18q28 0 50-25t23-88q0-35-9-68t-21-57-26-41-24-27-13-9q-4 0-13 9t-9 13q0 4 11 16t25 30 26 50 16 73V9l-1-1q-2-1-5-2t-6-3-9-2-12-1q-27 0-44 17z"/><path id="h" stroke-width="1" d="M297 596q0 31 21 48t43 17q17 0 28-10t14-28q0-28-19-47t-44-19q-18 0-30 10t-13 29zm-9-220q0 29-26 29-22 0-42-12t-35-31-24-37-17-32l-7-14q-2-1-16-1h-14q-6 6-6 8t4 13q21 49 59 92t88 50h8q7 0 12 1 24-1 44-10 25-14 38-31t13-53v-16l-49-199Q267-67 264-75q-18-50-70-89T75-204q-50 0-68 21t-19 46q0 27 19 46t46 20q17 0 29-10t13-31q0-36-32-55 6-1 14-1 34 0 62 28t43 66l11 42q11 43 26 104t32 125 27 111 11 57q0 7-1 11z"/><path id="i" stroke-width="1" d="M60 749l4 1h22l28-24q94-85 137-212t43-264q0-68-10-131T261 12t-37-88-38-67-41-51-32-33-23-19l-4-4H63q-3 0-5 3t-3 9q1 1 11 13Q221-64 221 250T66 725q-10 12-11 13 0 8 5 11z"/><path id="j" stroke-width="1" d="M56 347q0 13 14 20h637q15-8 15-20 0-11-14-19l-318-1H72q-16 5-16 20zm0-194q0 15 16 20h636q14-10 14-20 0-13-15-20H70q-14 7-14 20z"/><path id="l" stroke-width="1" d="M56 250q0 144 100 238t228 95q146 0 242-98t96-235q0-140-97-236T390-83q-141 0-237 97T56 250zm526 221q-51 39-86 52-50 19-115 19-57 0-109-23t-76-48l193-193 96 97 97 96zm-415-29q-72-80-72-192 0-113 72-192l192 192-192 192zM610 58q72 80 72 192 0 113-72 192L418 250 610 58zM196 29q13-13 34-27t65-29 93-15q21 0 41 2t36 7 31 10 26 12 22 12 17 12 13 9 8 7L388 222 196 29z"/><path id="b" stroke-width="1" d="M117 59q0-33 25-33 37 0 63 105 6 20 10 21 2 1 10 1h16q3 0 5-2t2-7q-1-6-3-16t-11-38-20-47-31-37-46-17q-36 0-67 22T38 85q0 12 1 17l65 258q63 255 63 263 0 3-1 5t-4 4-5 2-8 1-8 1-9 1-10 0h-13q-3 0-8 1t-6 3-1 6q0 2 2 14 5 19 11 21t72 6q15 1 34 2t30 3 11 1q12 0 12-8 0-11-73-300T118 83v-8q0-6-1-10v-6z"/><path id="k" stroke-width="1" d="M202-349V850h192v-40H242V-309h152v-40H202z"/><path id="n" stroke-width="1" d="M22 810v40h192V-349H22v40h152V810H22z"/><path id="o" stroke-width="1" d="M220-8Q142-8 94 35T45 155v12q0 20 7 51t52 208l49 196h-9q-4 0-10 1t-12 1-11 0-10 0-5 1q-12 3-12 17 0 5 4 19t6 18q4 5 15 6t76 5q73 4 87 4 17 0 21-15 0-3-30-126l-31-124 12 5q12 6 37 12t50 6q86 0 134-45t48-122q0-50-19-101t-55-94-93-70T220-8zm165 345q0 63-67 63-49 0-92-40-12-11-15-19t-20-73q-29-119-29-155 0-69 64-69 43 0 73 32t40 59 23 80q2 7 3 11 20 77 20 111z"/><path id="p" stroke-width="1" d="M60 948q3 2 605 2h602l58-135q59-138 63-146h-40l-7 14q-21 41-56 78-50 48-111 77t-141 43-151 17-183 4H251l8-11q463-633 465-639 1-2 0-6-3-3-264-302L196-356q0-1 211-1h141q89 0 128-1 136 0 220 5t167 21 141 49 103 87q21 26 41 72h40q0-1-7-21t-25-65-31-84l-58-155-601-1q-602 0-605 2-6 2-6 9 0 2 2 6l533 610q0 1-33 45T452 366 322 544L56 909l-1 15q0 21 5 24z"/><path id="q" stroke-width="1" d="M121 647q0 10 4 23t12 13q1 0 72 5t73 6q12 0 12-8 0-7-50-209-50-198-50-205 19 10 29 19 24 18 69 63t70 61q40 27 76 27 30 0 47-19t18-54q0-25-7-42t-19-25-21-11-18-3q-20 0-32 11t-12 29q0 25 16 41t32 21l16 3q-12 12-24 12h-4q-32-3-63-25t-73-64-66-61q2-1 15-3t24-6 26-8 27-14 22-18 17-26 6-33q0-17-5-41t-6-40q0-40 27-40 48 0 78 119 2 8 20 8h4q16 0 16-9 0-5-3-14Q455-11 378-11q-45 0-73 26t-28 75q0 18 3 31t3 24q0 22-14 38t-35 23-34 11-18 3h-2q-12-42-21-81t-14-58-9-37-7-24-7-13-11-9q-13-9-28-9-17 0-26 10t-9 17q0 10 37 160t73 295l37 145q1 13-7 16t-39 5h-18q-3 0-7 3t-3 7z"/><path id="r" stroke-width="1" d="M285 628q0 7-57 9-23 0-30 1t-7 9q0 2 2 14 6 20 10 21 2 1 11 1h5q41-2 136-2h63q29 0 45 1t20 0q17 0 17-8 0-5-3-14-1-2-1-6t-1-6-2-4-3-3-4-2-7-1-9-1-14 0q-40-1-51-3t-18-11l-81-318q1 0 184 144t188 148q14 14 14 23 0 15-25 17-16 0-16 11 0 2 3 14t5 15q3 5 17 5 4 0 35-1t80-1q23 0 48 1t30 1q20 0 20-10 0-22-8-30-3-5-19-5-75-5-136-51-16-10-70-52t-100-79l-47-37 9-22q9-22 28-67t35-85q75-177 80-183 2-2 5-4 14-10 51-11h21q6-8 6-9t-3-18q-4-13-10-19h-11q-40 3-95 3-122 0-137-3h-10q-6 6-6 9t2 18q4 13 6 16t11 3h3q50 0 50 25 0 4-27 70t-32 75l-58 138-68-53-68-53-23-93q-23-92-23-97 0-7 8-9t50-3h31q6-9 6-11 0-16-7-30-5-5-16-5-3 0-37 1T180 2H85Q52 2 49 1 31 1 31 11q0 2 3 14 4 16 8 18t23 3q27 0 60 3 14 3 19 12 3 4 72 278t69 289z"/><path id="s" stroke-width="1" d="M52 289q7 42 54 97t116 56q35 0 64-18t43-45q42 63 101 63 37 0 64-22t28-59q0-29-14-47t-27-22-23-4q-19 0-31 11t-12 29q0 46 50 63-11 13-40 13-13 0-19-2-38-16-56-66-60-221-60-258 0-28 16-40t35-12q37 0 73 33t49 81q3 10 6 11t16 2h4q15 0 15-8 0-1-2-11-16-57-62-101T333-11q-70 0-106 63-41-62-94-62h-6q-49 0-70 26T35 71q0 32 19 52t45 20q43 0 43-42 0-20-12-35t-23-20-13-5l-3-1q0-1 6-4t16-7 19-3q36 0 62 45 9 16 23 68t28 108 16 66q5 27 5 39 0 28-15 40t-34 12q-40 0-75-32t-49-82q-2-9-5-10t-16-2H58q-6 6-6 11z"/><path id="t" stroke-width="1" d="M118-162q2 0 6-2t11-3 12-1q13 0 24 13t16 29q10 27 34 153t46 240 22 115v3h-47q-47 0-50 2-4 3-4 10l7 28q2 5 8 5t47 1q48 0 48 1 0 2 9 50t12 58q37 165 146 165 37-2 61-22t24-53q0-36-21-52t-42-17q-44 0-44 42 0 19 11 33t24 21l9 5q-16 6-30 6-12 0-23-10t-15-28q-7-29-16-78t-16-83-7-36q0-2 55-2 45 0 52-1t11-6q1-4-2-17t-5-16q-2-5-9-5t-54-1h-56l-23-122Q301 15 282-47q-27-85-70-126-37-32-73-32-32 0-58 19t-26 54q0 37 21 54t42 17q44 0 44-42 0-19-11-33t-24-21l-9-5z"/><path id="u" stroke-width="1" d="M21 287q0 14 15 48t48 71 74 36q41 0 66-23t26-64q-2-19-3-21 0-3-16-46t-33-97-16-86q0-43 14-60t42-18q23 0 43 11t31 23 27 33q0 1 5 20t14 59 19 74q38 150 42 157 13 27 43 27 13 0 21-7t11-12 2-9q0-13-49-210T391-23q-28-83-97-132t-138-50q-45 0-79 22t-34 66q0 22 7 37t19 22 20 10 17 3q44 0 44-42 0-20-12-35t-23-20-13-5l-3-1q2-5 19-12t34-7h8q17 0 26 2 33 9 61 38t43 62 23 56 8 30l-6-4q-6-4-19-11T270-6q-20-5-39-5-46 0-81 22t-46 71q-1 7-1 31 0 57 35 149t35 117v14q0 3-4 7t-11 4h-4q-23 0-42-19t-30-41-17-42-8-22q-2-2-16-2H27q-6 6-6 9z"/><path id="v" stroke-width="1" d="M131 289q0 32 16 65t56 61 97 27q62 0 90-27t29-60q0-32-17-47t-38-16q-13 0-24 8t-12 26q0 16 9 28t17 18 13 6q1 0 1 1 0 3-7 9t-25 11-39 6q-48 0-70-26t-23-53q0-25 19-35t55-17 52-15q66-29 66-96 0-28-11-56t-33-56-63-44-94-17q-77 0-109 29T53 87q0 39 21 56t44 17q15 0 28-9t14-31q0-26-18-44t-31-18q-2-1-3-1t-1-2q1-3 8-8t31-13 55-7q36 0 62 11t38 28 17 31 5 25q0 28-21 42t-48 17-59 15-47 35q-17 25-17 58z"/><path id="w" stroke-width="1" d="M96 585q56 81 153 81 48 0 96-26t78-92q37-83 37-228 0-155-43-237-20-42-55-67t-61-31-51-7q-26 0-52 6t-61 32-55 67q-43 82-43 237 0 174 57 265zm225 12q-30 32-71 32-42 0-72-32-25-26-33-72t-8-192q0-158 8-208t36-79q28-30 69-30 40 0 68 30 29 30 36 84t8 203q0 145-8 191t-33 73z"/></defs><g fill="currentColor" stroke="currentColor" stroke-width="0" transform="scale(1 -1)"><use xlink:href="#a"/><g transform="matrix(.707 0 0 .707 815 412)"><use xlink:href="#b"/><use x="298" xlink:href="#c"/><use x="1077" xlink:href="#d"/></g><g transform="translate(2197)"><use xlink:href="#e"/><use x="389" xlink:href="#f"/><use x="735" xlink:href="#g"/><use x="1180" xlink:href="#h"/><use x="1592" xlink:href="#i"/></g><use x="4457" xlink:href="#j"/><g transform="translate(5513)"><use xlink:href="#k"/><g transform="translate(417)"><use xlink:href="#a"/><use x="1152" y="583" transform="scale(.707)" xlink:href="#b"/></g><use x="1765" xlink:href="#l"/><g transform="translate(2766)"><use xlink:href="#m"/><g transform="matrix(.707 0 0 .707 831 412)"><use xlink:href="#b"/><use x="298" xlink:href="#c"/><use x="1077" xlink:href="#d"/></g></g><use x="4813" y="-1" xlink:href="#n"/></g><g transform="translate(10911)"><use xlink:href="#e"/><use x="389" xlink:href="#f"/><use x="735" xlink:href="#g"/><use x="1180" xlink:href="#h"/><use x="1592" xlink:href="#i"/></g><use x="13115" xlink:href="#c"/><use x="14116" xlink:href="#o"/><use x="14915" xlink:href="#j"/><g transform="translate(15971)"><use xlink:href="#p"/><g transform="matrix(.707 0 0 .707 85 -1110)"><use xlink:href="#q"/><use x="521" xlink:href="#j"/><use x="1300" xlink:href="#d"/></g><g transform="translate(311 1174)"><use transform="scale(.707)" xlink:href="#r"/><use x="1201" y="-213" transform="scale(.5)" xlink:href="#b"/></g></g><g transform="translate(17583)"><use xlink:href="#p"/><g transform="matrix(.707 0 0 .707 67 -1090)"><use xlink:href="#s"/><use x="572" xlink:href="#j"/><use x="1351" xlink:href="#d"/></g><use x="746" y="1708" transform="scale(.707)" xlink:href="#t"/><g transform="translate(1611)"><use xlink:href="#p"/><g transform="matrix(.707 0 0 .707 94 -1090)"><use xlink:href="#u"/><use x="497" xlink:href="#j"/><use x="1276" xlink:href="#d"/></g><use x="746" y="1708" transform="scale(.707)" xlink:href="#t"/><g transform="translate(1611)"><use xlink:href="#k"/><g transform="translate(417)"><use xlink:href="#a"/><use x="1152" y="500" transform="scale(.707)" xlink:href="#b"/><use x="1093" y="-463" transform="scale(.707)" xlink:href="#q"/></g><g transform="translate(1826)"><use xlink:href="#e"/><g transform="translate(389)"><use xlink:href="#v"/><use x="663" y="-213" transform="scale(.707)" xlink:href="#w"/></g><use x="1312" xlink:href="#f"/><use x="1880" xlink:href="#c"/><use x="2881" xlink:href="#s"/><use x="3453" xlink:href="#g"/><g transform="translate(3899)"><use xlink:href="#v"/><use x="663" y="-213" transform="scale(.707)" xlink:href="#w"/></g><use x="4822" xlink:href="#h"/><use x="5457" xlink:href="#c"/><use x="6457" xlink:href="#u"/><use x="6955" xlink:href="#i"/></g><g transform="translate(9337)"><use xlink:href="#m"/><g transform="matrix(.707 0 0 .707 831 403)"><use xlink:href="#b"/><use x="298" xlink:href="#c"/><use x="1077" xlink:href="#d"/></g><use x="1175" y="-463" transform="scale(.707)" xlink:href="#q"/></g><g transform="translate(11551)"><use xlink:href="#e"/><use x="389" xlink:href="#s"/><use x="962" xlink:href="#g"/><use x="1407" xlink:href="#u"/><use x="1904" xlink:href="#i"/></g><use x="13845" y="-1" xlink:href="#n"/></g></g></g><use x="35290" xlink:href="#c"/><use x="36291" xlink:href="#o"/></g></svg>