<?xml version="1.0" standalone="no"?><!DOCTYPE svg PUBLIC "-//W3C//DTD SVG 1.1//EN" "http://www.w3.org/Graphics/SVG/1.1/DTD/svg11.dtd"><svg t="1669636377451" class="icon" viewBox="0 0 1024 1024" version="1.1" xmlns="http://www.w3.org/2000/svg" p-id="1028" xmlns:xlink="http://www.w3.org/1999/xlink" width="200" height="200"><path d="M728.246857 128a82.285714 82.285714 0 0 1 82.285714 82.285714v102.107429l-334.994285 323.072-1.188572 1.206857-1.206857 1.206857a94.354286 94.354286 0 0 0-3.84 126.72l6.253714 6.582857 3.730286 3.638857a96 96 0 0 0 126.500572 5.979429l6.802285-5.979429L810.422857 583.899429l0.054857 229.869714a82.285714 82.285714 0 0 1-82.285714 82.285714H210.285714a82.285714 82.285714 0 0 1-82.285714-82.285714V210.285714A82.285714 82.285714 0 0 1 210.285714 128h517.961143z m153.819429 246.710857l1.590857 1.536a40.429714 40.429714 0 0 1 0 58.148572L575.561143 731.702857a41.142857 41.142857 0 0 1-57.106286 0l-1.645714-1.536a40.429714 40.429714 0 0 1 0-58.148571l308.114286-297.252572a41.142857 41.142857 0 0 1 57.142857 0v-0.054857zM325.906286 658.285714H255.085714c-19.693714 0-35.657143 16.365714-35.657143 36.571429s15.963429 36.571429 35.657143 36.571428h70.820572c19.712 0 35.657143-16.365714 35.657143-36.571428s-15.945143-36.571429-35.657143-36.571429z m233.746285-365.714285H263.259429c-22.930286-0.018286-42.002286 14.756571-43.702858 33.865142-1.700571 19.108571 14.555429 36.077714 37.248 38.875429l6.454858 0.402286h296.411428C583.808 365.714286 603.428571 349.348571 603.428571 329.142857s-19.602286-36.571429-43.776-36.571428z m-129.609142 182.857142H246.564571c-14.208-0.018286-26.002286 14.756571-27.062857 33.865143-1.042286 19.108571 9.014857 36.077714 23.058286 38.875429l4.004571 0.402286h183.478858c14.976 0 27.099429-16.365714 27.099428-36.571429s-12.123429-36.571429-27.099428-36.571429z" p-id="1029"></path></svg>