<?xml version="1.0" standalone="no"?><!DOCTYPE svg PUBLIC "-//W3C//DTD SVG 1.1//EN" "http://www.w3.org/Graphics/SVG/1.1/DTD/svg11.dtd"><svg t="1669633682841" class="icon" viewBox="0 0 1024 1024" version="1.1" xmlns="http://www.w3.org/2000/svg" p-id="1371" xmlns:xlink="http://www.w3.org/1999/xlink" width="200" height="200"><path d="M814.933333 213.333333C648.533333 46.933333 375.466667 46.933333 209.066667 213.333333 42.666667 379.733333 42.666667 648.533333 209.066667 819.2c166.4 166.4 435.2 166.4 601.6 0 170.666667-170.666667 170.666667-439.466667 4.266666-605.866667z m-55.466666 337.066667h-213.333334v213.333333c0 17.066667-12.8 34.133333-34.133333 34.133334s-34.133333-12.8-34.133333-34.133334v-213.333333h-213.333334c-17.066667 0-34.133333-12.8-34.133333-34.133333s12.8-34.133333 34.133333-34.133334h213.333334v-213.333333c0-17.066667 12.8-34.133333 34.133333-34.133333s34.133333 12.8 34.133333 34.133333v213.333333h213.333334c17.066667 0 34.133333 12.8 34.133333 34.133334s-12.8 34.133333-34.133333 34.133333z" p-id="1372"></path></svg>